<svg id="visual" viewBox="0 0 900 600" width="900" height="600" xmlns="http://www.w3.org/2000/svg" xmlns:xlink="http://www.w3.org/1999/xlink" version="1.1"><rect x="0" y="0" width="900" height="600" fill="#002233"></rect><path d="M0 481L21.5 471.8C43 462.7 86 444.3 128.8 444.8C171.7 445.3 214.3 464.7 257.2 469.3C300 474 343 464 385.8 463.2C428.7 462.3 471.3 470.7 514.2 465C557 459.3 600 439.7 642.8 445.7C685.7 451.7 728.3 483.3 771.2 479.8C814 476.3 857 437.7 878.5 418.3L900 399L900 601L878.5 601C857 601 814 601 771.2 601C728.3 601 685.7 601 642.8 601C600 601 557 601 514.2 601C471.3 601 428.7 601 385.8 601C343 601 300 601 257.2 601C214.3 601 171.7 601 128.8 601C86 601 43 601 21.5 601L0 601Z" fill="#0066FF" stroke-linecap="round" stroke-linejoin="miter"></path></svg>